<mxfile host="Electron" agent="Mozilla/5.0 (X11; Linux x86_64) AppleWebKit/537.36 (KHTML, like Gecko) draw.io/24.7.5 Chrome/126.0.6478.183 Electron/31.3.0 Safari/537.36" version="24.7.5">
  <diagram id="-yI4RgH8IV-UW89I-0HR" name="Page-1">
    <mxGraphModel dx="3274" dy="2070" grid="1" gridSize="10" guides="1" tooltips="1" connect="1" arrows="1" fold="1" page="0" pageScale="1" pageWidth="930" pageHeight="1320" background="none" math="0" shadow="0">
      <root>
        <mxCell id="0" />
        <mxCell id="1" parent="0" />
        <mxCell id="npViB2GcufCHaodQWCgt-26" value="" style="rounded=1;whiteSpace=wrap;html=1;arcSize=4;strokeWidth=0.5;dashed=1;dashPattern=1 2;movable=1;resizable=1;rotatable=1;deletable=1;editable=1;locked=0;connectable=1;" parent="1" vertex="1">
          <mxGeometry x="-915" y="-1184" width="1095" height="1344" as="geometry" />
        </mxCell>
        <mxCell id="DN5n0ErYYURpiHTaHwvZ-42" value="" style="rounded=1;whiteSpace=wrap;html=1;arcSize=2;strokeWidth=0.5;dashed=1;dashPattern=1 2;movable=1;resizable=1;rotatable=1;deletable=1;editable=1;locked=0;connectable=1;" parent="1" vertex="1">
          <mxGeometry x="-905" y="-834" width="1075" height="918" as="geometry" />
        </mxCell>
        <mxCell id="cFVYeV_1yY1gLTdhUka6-164" value="" style="rounded=1;whiteSpace=wrap;html=1;strokeColor=#666666;arcSize=9;strokeWidth=0.5;fillColor=none;" vertex="1" parent="1">
          <mxGeometry x="-893" y="-603" width="226" height="228" as="geometry" />
        </mxCell>
        <mxCell id="cFVYeV_1yY1gLTdhUka6-165" value="" style="rounded=1;whiteSpace=wrap;html=1;strokeColor=#666666;arcSize=9;strokeWidth=0.5;fillColor=none;" vertex="1" parent="1">
          <mxGeometry x="-895" y="-314" width="230" height="210" as="geometry" />
        </mxCell>
        <mxCell id="cFVYeV_1yY1gLTdhUka6-166" value="" style="rounded=1;whiteSpace=wrap;html=1;strokeColor=#666666;arcSize=9;strokeWidth=0.5;fillColor=none;" vertex="1" parent="1">
          <mxGeometry x="-776" y="-59.5" width="404" height="129.5" as="geometry" />
        </mxCell>
        <mxCell id="cFVYeV_1yY1gLTdhUka6-167" value="" style="rounded=1;whiteSpace=wrap;html=1;strokeColor=#666666;arcSize=9;strokeWidth=0.5;fillColor=none;" vertex="1" parent="1">
          <mxGeometry x="-607" y="-364" width="229" height="224" as="geometry" />
        </mxCell>
        <mxCell id="cFVYeV_1yY1gLTdhUka6-168" value="" style="rounded=1;whiteSpace=wrap;html=1;strokeColor=#666666;arcSize=9;strokeWidth=0.5;fillColor=none;" vertex="1" parent="1">
          <mxGeometry x="-602" y="-672" width="230" height="288" as="geometry" />
        </mxCell>
        <mxCell id="cFVYeV_1yY1gLTdhUka6-47" value="" style="rounded=1;whiteSpace=wrap;html=1;arcSize=14;strokeWidth=0.5;dashed=1;dashPattern=1 2;movable=1;resizable=1;rotatable=1;deletable=1;editable=1;locked=0;connectable=1;" vertex="1" parent="1">
          <mxGeometry x="-484" y="-1036" width="454" height="169" as="geometry" />
        </mxCell>
        <mxCell id="DN5n0ErYYURpiHTaHwvZ-5" style="edgeStyle=orthogonalEdgeStyle;rounded=1;orthogonalLoop=1;jettySize=auto;html=1;flowAnimation=1;fillColor=#b0e3e6;strokeColor=#0e8088;" parent="1" source="DN5n0ErYYURpiHTaHwvZ-11" target="DN5n0ErYYURpiHTaHwvZ-4" edge="1">
          <mxGeometry relative="1" as="geometry" />
        </mxCell>
        <mxCell id="6VBopC7Kgicb1M07M-dv-30" value="YES" style="edgeLabel;html=1;align=center;verticalAlign=middle;resizable=0;points=[];rounded=1;" parent="DN5n0ErYYURpiHTaHwvZ-5" vertex="1" connectable="0">
          <mxGeometry x="-0.18" relative="1" as="geometry">
            <mxPoint x="-2" y="-27" as="offset" />
          </mxGeometry>
        </mxCell>
        <mxCell id="DN5n0ErYYURpiHTaHwvZ-13" style="edgeStyle=orthogonalEdgeStyle;rounded=1;orthogonalLoop=1;jettySize=auto;html=1;entryX=0.5;entryY=0;entryDx=0;entryDy=0;flowAnimation=1;fillColor=#b0e3e6;strokeColor=#0e8088;" parent="1" source="DN5n0ErYYURpiHTaHwvZ-1" target="DN5n0ErYYURpiHTaHwvZ-11" edge="1">
          <mxGeometry relative="1" as="geometry" />
        </mxCell>
        <mxCell id="DN5n0ErYYURpiHTaHwvZ-1" value="READ SEQUENCE KMERS" style="shape=process;whiteSpace=wrap;html=1;backgroundOutline=1;fillColor=#b0e3e6;strokeColor=#0e8088;rounded=1;" parent="1" vertex="1">
          <mxGeometry x="-875" y="-585" width="130" height="60" as="geometry" />
        </mxCell>
        <mxCell id="DN5n0ErYYURpiHTaHwvZ-3" style="edgeStyle=orthogonalEdgeStyle;rounded=1;orthogonalLoop=1;jettySize=auto;html=1;entryX=0.5;entryY=0;entryDx=0;entryDy=0;flowAnimation=1;fillColor=#b0e3e6;strokeColor=#0e8088;" parent="1" source="DN5n0ErYYURpiHTaHwvZ-2" target="DN5n0ErYYURpiHTaHwvZ-14" edge="1">
          <mxGeometry relative="1" as="geometry" />
        </mxCell>
        <mxCell id="DN5n0ErYYURpiHTaHwvZ-2" value="START" style="html=1;dashed=0;whiteSpace=wrap;shape=mxgraph.dfd.start;fillColor=#d5e8d4;strokeColor=#82b366;rounded=1;" parent="1" vertex="1">
          <mxGeometry x="-850" y="-815" width="80" height="30" as="geometry" />
        </mxCell>
        <mxCell id="DN5n0ErYYURpiHTaHwvZ-8" style="edgeStyle=orthogonalEdgeStyle;rounded=1;orthogonalLoop=1;jettySize=auto;html=1;flowAnimation=1;fillColor=#b0e3e6;strokeColor=#0e8088;" parent="1" source="DN5n0ErYYURpiHTaHwvZ-4" target="DN5n0ErYYURpiHTaHwvZ-7" edge="1">
          <mxGeometry relative="1" as="geometry" />
        </mxCell>
        <mxCell id="DN5n0ErYYURpiHTaHwvZ-4" value="BUILD MAP FROM QUERY KMERS" style="shape=process;whiteSpace=wrap;html=1;backgroundOutline=1;fillColor=#b0e3e6;strokeColor=#0e8088;rounded=1;" parent="1" vertex="1">
          <mxGeometry x="-885" y="-295" width="150" height="50" as="geometry" />
        </mxCell>
        <mxCell id="6VBopC7Kgicb1M07M-dv-46" style="edgeStyle=orthogonalEdgeStyle;rounded=1;orthogonalLoop=1;jettySize=auto;html=1;flowAnimation=1;fillColor=#b0e3e6;strokeColor=#0e8088;entryX=0;entryY=0.5;entryDx=0;entryDy=0;exitX=0.5;exitY=1;exitDx=0;exitDy=0;" parent="1" source="DN5n0ErYYURpiHTaHwvZ-7" target="6VBopC7Kgicb1M07M-dv-40" edge="1">
          <mxGeometry relative="1" as="geometry" />
        </mxCell>
        <mxCell id="6VBopC7Kgicb1M07M-dv-47" value="YES" style="edgeLabel;html=1;align=center;verticalAlign=middle;resizable=0;points=[];rounded=1;" parent="6VBopC7Kgicb1M07M-dv-46" vertex="1" connectable="0">
          <mxGeometry x="-0.229" y="-1" relative="1" as="geometry">
            <mxPoint x="1" y="-64" as="offset" />
          </mxGeometry>
        </mxCell>
        <mxCell id="DN5n0ErYYURpiHTaHwvZ-7" value="ENOUGH&lt;div&gt;&amp;nbsp;MATCHES?&lt;/div&gt;" style="rhombus;whiteSpace=wrap;html=1;fillColor=#eeeeee;strokeColor=#BABABA;rounded=1;" parent="1" vertex="1">
          <mxGeometry x="-855" y="-216" width="90" height="80" as="geometry" />
        </mxCell>
        <mxCell id="DN5n0ErYYURpiHTaHwvZ-11" value="ENOUGH&lt;div&gt;&amp;nbsp;KMERS?&lt;/div&gt;" style="rhombus;whiteSpace=wrap;html=1;fillColor=#eeeeee;strokeColor=#BABABA;rounded=1;" parent="1" vertex="1">
          <mxGeometry x="-855" y="-490" width="90" height="80" as="geometry" />
        </mxCell>
        <mxCell id="6VBopC7Kgicb1M07M-dv-32" value="" style="edgeStyle=orthogonalEdgeStyle;rounded=1;orthogonalLoop=1;jettySize=auto;html=1;flowAnimation=1;fillColor=#e51400;strokeColor=#B20000;exitX=1;exitY=0.5;exitDx=0;exitDy=0;" parent="1" source="DN5n0ErYYURpiHTaHwvZ-11" target="DN5n0ErYYURpiHTaHwvZ-12" edge="1">
          <mxGeometry relative="1" as="geometry" />
        </mxCell>
        <mxCell id="6VBopC7Kgicb1M07M-dv-33" value="NO" style="edgeLabel;html=1;align=center;verticalAlign=middle;resizable=0;points=[];rounded=1;" parent="6VBopC7Kgicb1M07M-dv-32" vertex="1" connectable="0">
          <mxGeometry x="-0.0356" relative="1" as="geometry">
            <mxPoint x="-16" as="offset" />
          </mxGeometry>
        </mxCell>
        <mxCell id="DN5n0ErYYURpiHTaHwvZ-12" value="EMIT ERROR" style="html=1;dashed=0;whiteSpace=wrap;shape=mxgraph.dfd.start;fillColor=#f8cecc;strokeColor=#b85450;rounded=1;" parent="1" vertex="1">
          <mxGeometry x="-776" y="-507" width="95" height="30" as="geometry" />
        </mxCell>
        <mxCell id="DN5n0ErYYURpiHTaHwvZ-15" style="edgeStyle=orthogonalEdgeStyle;rounded=1;orthogonalLoop=1;jettySize=auto;html=1;flowAnimation=1;fillColor=#b0e3e6;strokeColor=#0e8088;" parent="1" source="DN5n0ErYYURpiHTaHwvZ-14" target="DN5n0ErYYURpiHTaHwvZ-1" edge="1">
          <mxGeometry relative="1" as="geometry" />
        </mxCell>
        <mxCell id="DN5n0ErYYURpiHTaHwvZ-14" value="QUERY&lt;div&gt;SEQUENCE&lt;/div&gt;" style="shape=parallelogram;perimeter=parallelogramPerimeter;whiteSpace=wrap;html=1;fixedSize=1;fillColor=#fff2cc;strokeColor=#d6b656;rounded=1;" parent="1" vertex="1">
          <mxGeometry x="-870" y="-755" width="120" height="60" as="geometry" />
        </mxCell>
        <mxCell id="DN5n0ErYYURpiHTaHwvZ-18" style="edgeStyle=orthogonalEdgeStyle;rounded=1;orthogonalLoop=1;jettySize=auto;html=1;exitX=1;exitY=0.5;exitDx=0;exitDy=0;entryX=0.5;entryY=0;entryDx=0;entryDy=0;flowAnimation=1;endArrow=none;endFill=0;fillColor=#b0e3e6;strokeColor=#0e8088;" parent="1" source="6VBopC7Kgicb1M07M-dv-23" target="DN5n0ErYYURpiHTaHwvZ-17" edge="1">
          <mxGeometry relative="1" as="geometry" />
        </mxCell>
        <mxCell id="DN5n0ErYYURpiHTaHwvZ-27" style="edgeStyle=orthogonalEdgeStyle;rounded=1;orthogonalLoop=1;jettySize=auto;html=1;exitX=0;exitY=0.5;exitDx=0;exitDy=0;flowAnimation=1;endArrow=none;endFill=0;fillColor=#b0e3e6;strokeColor=#0e8088;" parent="1" source="6VBopC7Kgicb1M07M-dv-23" target="DN5n0ErYYURpiHTaHwvZ-32" edge="1">
          <mxGeometry relative="1" as="geometry">
            <mxPoint x="-864.9827586206898" y="-1086" as="targetPoint" />
          </mxGeometry>
        </mxCell>
        <mxCell id="DN5n0ErYYURpiHTaHwvZ-16" value="START" style="html=1;dashed=0;whiteSpace=wrap;shape=mxgraph.dfd.start;fillColor=#d5e8d4;strokeColor=#82b366;rounded=1;" parent="1" vertex="1">
          <mxGeometry x="-795" y="-1165" width="80" height="30" as="geometry" />
        </mxCell>
        <mxCell id="cFVYeV_1yY1gLTdhUka6-170" style="edgeStyle=orthogonalEdgeStyle;rounded=1;orthogonalLoop=1;jettySize=auto;html=1;entryX=1;entryY=0.5;entryDx=0;entryDy=0;strokeColor=#0e8088;align=center;verticalAlign=middle;fontFamily=Helvetica;fontSize=11;fontColor=default;labelBackgroundColor=default;endArrow=none;flowAnimation=1;flowAnimationDuration=500;fillColor=#b0e3e6;endFill=0;" edge="1" parent="1" source="DN5n0ErYYURpiHTaHwvZ-17" target="6VBopC7Kgicb1M07M-dv-22">
          <mxGeometry relative="1" as="geometry">
            <Array as="points">
              <mxPoint x="-705" y="-1007" />
            </Array>
          </mxGeometry>
        </mxCell>
        <mxCell id="DN5n0ErYYURpiHTaHwvZ-17" value="QUERY SEQUENCES WITH MULTI FASTA" style="shape=parallelogram;perimeter=parallelogramPerimeter;whiteSpace=wrap;html=1;fixedSize=1;fillColor=#fff2cc;strokeColor=#d6b656;rounded=1;" parent="1" vertex="1">
          <mxGeometry x="-760" y="-1086" width="110" height="60" as="geometry" />
        </mxCell>
        <mxCell id="DN5n0ErYYURpiHTaHwvZ-32" value="CLASSEQ DATABASE" style="shape=parallelogram;perimeter=parallelogramPerimeter;whiteSpace=wrap;html=1;fixedSize=1;fillColor=#fff2cc;strokeColor=#d6b656;rounded=1;" parent="1" vertex="1">
          <mxGeometry x="-863" y="-1086" width="110" height="60" as="geometry" />
        </mxCell>
        <mxCell id="cFVYeV_1yY1gLTdhUka6-34" style="edgeStyle=orthogonalEdgeStyle;rounded=1;orthogonalLoop=1;jettySize=auto;html=1;strokeColor=#0e8088;align=center;verticalAlign=middle;fontFamily=Helvetica;fontSize=11;fontColor=default;labelBackgroundColor=default;endArrow=classic;flowAnimation=1;flowAnimationDuration=500;fillColor=#b0e3e6;" edge="1" parent="1" source="DN5n0ErYYURpiHTaHwvZ-34" target="cFVYeV_1yY1gLTdhUka6-32">
          <mxGeometry relative="1" as="geometry" />
        </mxCell>
        <mxCell id="DN5n0ErYYURpiHTaHwvZ-34" value="CLASSEQ ANNOTATIONS" style="shape=parallelogram;perimeter=parallelogramPerimeter;whiteSpace=wrap;html=1;fixedSize=1;fillColor=#fff2cc;strokeColor=#d6b656;rounded=1;" parent="1" vertex="1">
          <mxGeometry x="-320" y="-1116" width="125" height="60" as="geometry" />
        </mxCell>
        <mxCell id="6VBopC7Kgicb1M07M-dv-3" value="" style="group;rounded=1;" parent="1" vertex="1" connectable="0">
          <mxGeometry x="-462.5" y="-1003" width="110" height="110" as="geometry" />
        </mxCell>
        <mxCell id="DN5n0ErYYURpiHTaHwvZ-20" value="" style="verticalLabelPosition=bottom;html=1;verticalAlign=top;strokeWidth=2;shape=mxgraph.lean_mapping.physical_pull;pointerEvents=1;rounded=1;" parent="6VBopC7Kgicb1M07M-dv-3" vertex="1">
          <mxGeometry width="110" height="110" as="geometry" />
        </mxCell>
        <mxCell id="DN5n0ErYYURpiHTaHwvZ-37" value="DELIVERY TO THE&amp;nbsp;&lt;div&gt;PARALLEL PLACEMENT QUEUE&lt;/div&gt;" style="text;html=1;align=center;verticalAlign=middle;whiteSpace=wrap;rounded=1;" parent="6VBopC7Kgicb1M07M-dv-3" vertex="1">
          <mxGeometry x="15" y="40" width="70" height="30" as="geometry" />
        </mxCell>
        <mxCell id="cFVYeV_1yY1gLTdhUka6-27" style="edgeStyle=orthogonalEdgeStyle;rounded=1;orthogonalLoop=1;jettySize=auto;html=1;exitX=1;exitY=0.5;exitDx=0;exitDy=0;strokeColor=#0e8088;align=center;verticalAlign=middle;fontFamily=Helvetica;fontSize=11;fontColor=default;labelBackgroundColor=default;endArrow=classic;flowAnimation=1;flowAnimationDuration=500;fillColor=#b0e3e6;" edge="1" parent="1" source="cFVYeV_1yY1gLTdhUka6-55" target="qFDh_s9qJEZ1eBO1WNiB-1">
          <mxGeometry relative="1" as="geometry" />
        </mxCell>
        <mxCell id="6VBopC7Kgicb1M07M-dv-22" value="" style="rhombus;whiteSpace=wrap;html=1;fillColor=#b0e3e6;strokeColor=#0e8088;rounded=1;" parent="1" vertex="1">
          <mxGeometry x="-760" y="-1012" width="10" height="10" as="geometry" />
        </mxCell>
        <mxCell id="6VBopC7Kgicb1M07M-dv-24" value="" style="edgeStyle=orthogonalEdgeStyle;rounded=1;orthogonalLoop=1;jettySize=auto;html=1;exitX=0.5;exitY=0.5;exitDx=0;exitDy=15;exitPerimeter=0;entryX=0.5;entryY=0;entryDx=0;entryDy=0;flowAnimation=1;endArrow=none;endFill=0;fillColor=#b0e3e6;strokeColor=#0e8088;" parent="1" source="DN5n0ErYYURpiHTaHwvZ-16" target="6VBopC7Kgicb1M07M-dv-23" edge="1">
          <mxGeometry relative="1" as="geometry">
            <mxPoint x="-755" y="-1135" as="sourcePoint" />
            <mxPoint x="-755" y="-1086" as="targetPoint" />
            <Array as="points">
              <mxPoint x="-755" y="-1125" />
              <mxPoint x="-755" y="-1125" />
            </Array>
          </mxGeometry>
        </mxCell>
        <mxCell id="6VBopC7Kgicb1M07M-dv-23" value="" style="rhombus;whiteSpace=wrap;html=1;fillColor=#b0e3e6;strokeColor=#0e8088;rounded=1;" parent="1" vertex="1">
          <mxGeometry x="-760" y="-1115" width="10" height="10" as="geometry" />
        </mxCell>
        <mxCell id="6VBopC7Kgicb1M07M-dv-31" value="&lt;span style=&quot;text-align: left;&quot;&gt;UCPLACE0005&lt;/span&gt;" style="shape=step;perimeter=stepPerimeter;whiteSpace=wrap;html=1;fixedSize=1;size=10;dashed=1;dashPattern=1 1;rounded=1;strokeColor=#6c8ebf;fillColor=#dae8fc;" parent="1" vertex="1">
          <mxGeometry x="-795" y="-430" width="110" height="20" as="geometry" />
        </mxCell>
        <mxCell id="6VBopC7Kgicb1M07M-dv-35" value="EMIT ERROR" style="html=1;dashed=0;whiteSpace=wrap;shape=mxgraph.dfd.start;fillColor=#f8cecc;strokeColor=#b85450;rounded=1;" parent="1" vertex="1">
          <mxGeometry x="-774" y="-229" width="95" height="30" as="geometry" />
        </mxCell>
        <mxCell id="6VBopC7Kgicb1M07M-dv-36" style="edgeStyle=orthogonalEdgeStyle;rounded=1;orthogonalLoop=1;jettySize=auto;html=1;entryX=0.5;entryY=0.5;entryDx=0;entryDy=15;entryPerimeter=0;flowAnimation=1;fillColor=#e51400;strokeColor=#B20000;exitX=1;exitY=0.5;exitDx=0;exitDy=0;" parent="1" source="DN5n0ErYYURpiHTaHwvZ-7" target="6VBopC7Kgicb1M07M-dv-35" edge="1">
          <mxGeometry relative="1" as="geometry" />
        </mxCell>
        <mxCell id="6VBopC7Kgicb1M07M-dv-37" value="NO" style="edgeLabel;html=1;align=center;verticalAlign=middle;resizable=0;points=[];rounded=1;" parent="6VBopC7Kgicb1M07M-dv-36" vertex="1" connectable="0">
          <mxGeometry x="-0.067" relative="1" as="geometry">
            <mxPoint x="-11" as="offset" />
          </mxGeometry>
        </mxCell>
        <mxCell id="6VBopC7Kgicb1M07M-dv-38" value="&lt;span style=&quot;text-align: left;&quot;&gt;UCPLACE0006&lt;/span&gt;" style="shape=step;perimeter=stepPerimeter;whiteSpace=wrap;html=1;fixedSize=1;size=10;dashed=1;dashPattern=1 1;rounded=1;strokeColor=#6c8ebf;fillColor=#dae8fc;" parent="1" vertex="1">
          <mxGeometry x="-795" y="-156" width="110" height="20" as="geometry" />
        </mxCell>
        <mxCell id="6VBopC7Kgicb1M07M-dv-39" style="edgeStyle=orthogonalEdgeStyle;rounded=1;orthogonalLoop=1;jettySize=auto;html=1;flowAnimation=1;fillColor=#b0e3e6;strokeColor=#0e8088;entryX=0;entryY=0.5;entryDx=0;entryDy=0;" parent="1" source="6VBopC7Kgicb1M07M-dv-40" target="6VBopC7Kgicb1M07M-dv-41" edge="1">
          <mxGeometry relative="1" as="geometry" />
        </mxCell>
        <mxCell id="6VBopC7Kgicb1M07M-dv-40" value="BUILD INTROSPECTION MAP" style="shape=process;whiteSpace=wrap;html=1;backgroundOutline=1;fillColor=#b0e3e6;strokeColor=#0e8088;rounded=1;" parent="1" vertex="1">
          <mxGeometry x="-753" y="-9" width="150" height="50" as="geometry" />
        </mxCell>
        <mxCell id="cFVYeV_1yY1gLTdhUka6-163" style="edgeStyle=orthogonalEdgeStyle;rounded=1;orthogonalLoop=1;jettySize=auto;html=1;strokeColor=#0e8088;align=center;verticalAlign=middle;fontFamily=Helvetica;fontSize=11;fontColor=default;labelBackgroundColor=default;endArrow=classic;flowAnimation=1;fillColor=#b0e3e6;" edge="1" parent="1" source="6VBopC7Kgicb1M07M-dv-41" target="6VBopC7Kgicb1M07M-dv-48">
          <mxGeometry relative="1" as="geometry" />
        </mxCell>
        <mxCell id="cFVYeV_1yY1gLTdhUka6-169" value="YES" style="edgeLabel;html=1;align=center;verticalAlign=middle;resizable=0;points=[];rounded=1;" vertex="1" connectable="0" parent="cFVYeV_1yY1gLTdhUka6-163">
          <mxGeometry x="-0.7735" y="1" relative="1" as="geometry">
            <mxPoint as="offset" />
          </mxGeometry>
        </mxCell>
        <mxCell id="6VBopC7Kgicb1M07M-dv-41" value="ENOUGH&lt;div&gt;&amp;nbsp;MATCHES?&lt;/div&gt;" style="rhombus;whiteSpace=wrap;html=1;fillColor=#eeeeee;strokeColor=#BABABA;rounded=1;" parent="1" vertex="1">
          <mxGeometry x="-562" y="-23" width="90" height="80" as="geometry" />
        </mxCell>
        <mxCell id="6VBopC7Kgicb1M07M-dv-42" value="EMIT ERROR" style="html=1;dashed=0;whiteSpace=wrap;shape=mxgraph.dfd.start;fillColor=#f8cecc;strokeColor=#b85450;rounded=1;" parent="1" vertex="1">
          <mxGeometry x="-479" y="-39" width="95" height="30" as="geometry" />
        </mxCell>
        <mxCell id="6VBopC7Kgicb1M07M-dv-43" style="edgeStyle=orthogonalEdgeStyle;rounded=1;orthogonalLoop=1;jettySize=auto;html=1;entryX=0.5;entryY=0.5;entryDx=0;entryDy=15;entryPerimeter=0;flowAnimation=1;fillColor=#e51400;strokeColor=#B20000;exitX=1;exitY=0.5;exitDx=0;exitDy=0;" parent="1" source="6VBopC7Kgicb1M07M-dv-41" target="6VBopC7Kgicb1M07M-dv-42" edge="1">
          <mxGeometry relative="1" as="geometry" />
        </mxCell>
        <mxCell id="6VBopC7Kgicb1M07M-dv-44" value="NO" style="edgeLabel;html=1;align=center;verticalAlign=middle;resizable=0;points=[];rounded=1;" parent="6VBopC7Kgicb1M07M-dv-43" vertex="1" connectable="0">
          <mxGeometry x="-0.067" relative="1" as="geometry">
            <mxPoint x="-13" as="offset" />
          </mxGeometry>
        </mxCell>
        <mxCell id="6VBopC7Kgicb1M07M-dv-45" value="&lt;span style=&quot;text-align: left;&quot;&gt;UCPLACE0007&lt;/span&gt;" style="shape=step;perimeter=stepPerimeter;whiteSpace=wrap;html=1;fixedSize=1;size=10;dashed=1;dashPattern=1 1;rounded=1;strokeColor=#6c8ebf;fillColor=#dae8fc;" parent="1" vertex="1">
          <mxGeometry x="-502" y="37" width="110" height="20" as="geometry" />
        </mxCell>
        <mxCell id="6VBopC7Kgicb1M07M-dv-52" style="edgeStyle=orthogonalEdgeStyle;rounded=1;orthogonalLoop=1;jettySize=auto;html=1;flowAnimation=1;fillColor=#b0e3e6;strokeColor=#0e8088;" parent="1" source="6VBopC7Kgicb1M07M-dv-48" target="6VBopC7Kgicb1M07M-dv-51" edge="1">
          <mxGeometry relative="1" as="geometry" />
        </mxCell>
        <mxCell id="6VBopC7Kgicb1M07M-dv-48" value="CALCULATE MAPPING COVERAGE" style="shape=process;whiteSpace=wrap;html=1;backgroundOutline=1;fillColor=#b0e3e6;strokeColor=#0e8088;rounded=1;" parent="1" vertex="1">
          <mxGeometry x="-592" y="-204" width="150" height="50" as="geometry" />
        </mxCell>
        <mxCell id="6VBopC7Kgicb1M07M-dv-54" style="edgeStyle=orthogonalEdgeStyle;rounded=1;orthogonalLoop=1;jettySize=auto;html=1;flowAnimation=1;fillColor=#e51400;strokeColor=#B20000;exitX=1;exitY=0.5;exitDx=0;exitDy=0;" parent="1" source="6VBopC7Kgicb1M07M-dv-51" target="6VBopC7Kgicb1M07M-dv-53" edge="1">
          <mxGeometry relative="1" as="geometry" />
        </mxCell>
        <mxCell id="6VBopC7Kgicb1M07M-dv-55" value="NO" style="edgeLabel;html=1;align=center;verticalAlign=middle;resizable=0;points=[];rounded=1;" parent="6VBopC7Kgicb1M07M-dv-54" vertex="1" connectable="0">
          <mxGeometry x="-0.0302" y="1" relative="1" as="geometry">
            <mxPoint x="-15" y="1" as="offset" />
          </mxGeometry>
        </mxCell>
        <mxCell id="6VBopC7Kgicb1M07M-dv-60" style="edgeStyle=orthogonalEdgeStyle;rounded=1;orthogonalLoop=1;jettySize=auto;html=1;entryX=0.5;entryY=1;entryDx=0;entryDy=0;flowAnimation=1;fillColor=#b0e3e6;strokeColor=#0e8088;" parent="1" source="6VBopC7Kgicb1M07M-dv-51" target="6VBopC7Kgicb1M07M-dv-58" edge="1">
          <mxGeometry relative="1" as="geometry" />
        </mxCell>
        <mxCell id="6VBopC7Kgicb1M07M-dv-61" value="YES" style="edgeLabel;html=1;align=center;verticalAlign=middle;resizable=0;points=[];rounded=1;" parent="6VBopC7Kgicb1M07M-dv-60" vertex="1" connectable="0">
          <mxGeometry x="-0.1535" y="-1" relative="1" as="geometry">
            <mxPoint x="-1" y="13" as="offset" />
          </mxGeometry>
        </mxCell>
        <mxCell id="6VBopC7Kgicb1M07M-dv-51" value="ENOUGH&lt;div&gt;&amp;nbsp;COVERAGE?&lt;/div&gt;" style="rhombus;whiteSpace=wrap;html=1;fillColor=#eeeeee;strokeColor=#BABABA;rounded=1;" parent="1" vertex="1">
          <mxGeometry x="-562" y="-321" width="90" height="80" as="geometry" />
        </mxCell>
        <mxCell id="6VBopC7Kgicb1M07M-dv-53" value="EMIT ERROR" style="html=1;dashed=0;whiteSpace=wrap;shape=mxgraph.dfd.start;fillColor=#f8cecc;strokeColor=#b85450;rounded=1;" parent="1" vertex="1">
          <mxGeometry x="-481" y="-340" width="95" height="30" as="geometry" />
        </mxCell>
        <mxCell id="6VBopC7Kgicb1M07M-dv-56" value="&lt;span style=&quot;text-align: left;&quot;&gt;UCPLACE0008&lt;/span&gt;" style="shape=step;perimeter=stepPerimeter;whiteSpace=wrap;html=1;fixedSize=1;size=10;dashed=1;dashPattern=1 1;rounded=1;strokeColor=#6c8ebf;fillColor=#dae8fc;" parent="1" vertex="1">
          <mxGeometry x="-509" y="-254.5" width="110" height="20" as="geometry" />
        </mxCell>
        <mxCell id="6VBopC7Kgicb1M07M-dv-57" value="" style="group;rounded=1;" parent="1" vertex="1" connectable="0">
          <mxGeometry x="-572" y="-515" width="110" height="110" as="geometry" />
        </mxCell>
        <mxCell id="6VBopC7Kgicb1M07M-dv-58" value="" style="verticalLabelPosition=bottom;html=1;verticalAlign=top;strokeWidth=2;shape=mxgraph.lean_mapping.physical_pull;pointerEvents=1;rounded=1;" parent="6VBopC7Kgicb1M07M-dv-57" vertex="1">
          <mxGeometry width="110" height="110" as="geometry" />
        </mxCell>
        <mxCell id="6VBopC7Kgicb1M07M-dv-59" value="START INTROSPECTION LOOP" style="text;html=1;align=center;verticalAlign=middle;whiteSpace=wrap;rounded=1;" parent="6VBopC7Kgicb1M07M-dv-57" vertex="1">
          <mxGeometry x="20" y="40" width="70" height="30" as="geometry" />
        </mxCell>
        <mxCell id="6VBopC7Kgicb1M07M-dv-62" value="&lt;span style=&quot;text-align: left;&quot;&gt;UCPLACE0009&lt;/span&gt;" style="shape=step;perimeter=stepPerimeter;whiteSpace=wrap;html=1;fixedSize=1;size=10;dashed=1;dashPattern=1 1;rounded=1;strokeColor=#6c8ebf;fillColor=#dae8fc;" parent="1" vertex="1">
          <mxGeometry x="-492" y="-425" width="110" height="20" as="geometry" />
        </mxCell>
        <mxCell id="npViB2GcufCHaodQWCgt-2" value="REACHED MAX ITERACTION?" style="rhombus;whiteSpace=wrap;html=1;fillColor=#eeeeee;strokeColor=#BABABA;rounded=1;" parent="1" vertex="1">
          <mxGeometry x="-562" y="-628" width="90" height="80" as="geometry" />
        </mxCell>
        <mxCell id="npViB2GcufCHaodQWCgt-3" value="EMIT ERROR" style="html=1;dashed=0;whiteSpace=wrap;shape=mxgraph.dfd.start;fillColor=#f8cecc;strokeColor=#b85450;rounded=1;" parent="1" vertex="1">
          <mxGeometry x="-481" y="-651" width="95" height="30" as="geometry" />
        </mxCell>
        <mxCell id="npViB2GcufCHaodQWCgt-4" style="edgeStyle=orthogonalEdgeStyle;rounded=1;orthogonalLoop=1;jettySize=auto;html=1;flowAnimation=1;fillColor=#e51400;strokeColor=#B20000;entryX=0.5;entryY=0.5;entryDx=0;entryDy=15;entryPerimeter=0;exitX=1;exitY=0.5;exitDx=0;exitDy=0;" parent="1" source="npViB2GcufCHaodQWCgt-2" target="npViB2GcufCHaodQWCgt-3" edge="1">
          <mxGeometry relative="1" as="geometry" />
        </mxCell>
        <mxCell id="npViB2GcufCHaodQWCgt-5" value="YES" style="edgeLabel;html=1;align=center;verticalAlign=middle;resizable=0;points=[];rounded=1;" parent="npViB2GcufCHaodQWCgt-4" vertex="1" connectable="0">
          <mxGeometry x="-0.0302" y="1" relative="1" as="geometry">
            <mxPoint x="-15" y="1" as="offset" />
          </mxGeometry>
        </mxCell>
        <mxCell id="npViB2GcufCHaodQWCgt-6" value="&lt;span style=&quot;text-align: left;&quot;&gt;UCPLACE0010&lt;/span&gt;" style="shape=step;perimeter=stepPerimeter;whiteSpace=wrap;html=1;fixedSize=1;size=10;dashed=1;dashPattern=1 1;rounded=1;strokeColor=#6c8ebf;fillColor=#dae8fc;" parent="1" vertex="1">
          <mxGeometry x="-504" y="-568" width="110" height="20" as="geometry" />
        </mxCell>
        <mxCell id="npViB2GcufCHaodQWCgt-7" style="edgeStyle=orthogonalEdgeStyle;rounded=1;orthogonalLoop=1;jettySize=auto;html=1;flowAnimation=1;fillColor=#b0e3e6;strokeColor=#0e8088;" parent="1" source="npViB2GcufCHaodQWCgt-2" target="npViB2GcufCHaodQWCgt-11" edge="1">
          <mxGeometry relative="1" as="geometry">
            <mxPoint x="-263" y="-655" as="targetPoint" />
          </mxGeometry>
        </mxCell>
        <mxCell id="npViB2GcufCHaodQWCgt-8" value="NO" style="edgeLabel;html=1;align=center;verticalAlign=middle;resizable=0;points=[];rounded=1;" parent="npViB2GcufCHaodQWCgt-7" vertex="1" connectable="0">
          <mxGeometry x="-0.1535" y="-1" relative="1" as="geometry">
            <mxPoint x="-1" y="23" as="offset" />
          </mxGeometry>
        </mxCell>
        <mxCell id="npViB2GcufCHaodQWCgt-14" style="edgeStyle=orthogonalEdgeStyle;rounded=1;orthogonalLoop=1;jettySize=auto;html=1;flowAnimation=1;fillColor=#b0e3e6;strokeColor=#0e8088;" parent="1" source="npViB2GcufCHaodQWCgt-11" target="npViB2GcufCHaodQWCgt-13" edge="1">
          <mxGeometry relative="1" as="geometry">
            <mxPoint x="-379" y="-777" as="targetPoint" />
          </mxGeometry>
        </mxCell>
        <mxCell id="npViB2GcufCHaodQWCgt-11" value="GENERATE PLACEMENT PROPOSALS" style="shape=process;whiteSpace=wrap;html=1;backgroundOutline=1;fillColor=#b0e3e6;strokeColor=#0e8088;rounded=1;" parent="1" vertex="1">
          <mxGeometry x="-592" y="-807" width="150" height="60" as="geometry" />
        </mxCell>
        <mxCell id="npViB2GcufCHaodQWCgt-13" value="EVALUATE PLACEMENT PROPOSALS" style="shape=process;whiteSpace=wrap;html=1;backgroundOutline=1;fillColor=#b0e3e6;strokeColor=#0e8088;rounded=1;" parent="1" vertex="1">
          <mxGeometry x="-380" y="-807" width="150" height="60" as="geometry" />
        </mxCell>
        <mxCell id="npViB2GcufCHaodQWCgt-18" style="edgeStyle=orthogonalEdgeStyle;rounded=1;orthogonalLoop=1;jettySize=auto;html=1;exitX=0.5;exitY=0;exitDx=0;exitDy=0;flowAnimation=1;fillColor=#b0e3e6;strokeColor=#0e8088;" parent="1" source="6VBopC7Kgicb1M07M-dv-58" target="npViB2GcufCHaodQWCgt-2" edge="1">
          <mxGeometry relative="1" as="geometry" />
        </mxCell>
        <mxCell id="npViB2GcufCHaodQWCgt-27" value="core / use-cases / place-single-sequence" style="text;html=1;align=right;verticalAlign=middle;whiteSpace=wrap;rounded=1;fontColor=#B266FF;" parent="1" vertex="1">
          <mxGeometry x="-95" y="-827" width="245" height="10" as="geometry" />
        </mxCell>
        <mxCell id="npViB2GcufCHaodQWCgt-28" value="core / use-cases / place-multi-sequences" style="text;html=1;align=right;verticalAlign=middle;whiteSpace=wrap;rounded=1;fontColor=#B266FF;" parent="1" vertex="1">
          <mxGeometry x="-94" y="-1175" width="245" height="10" as="geometry" />
        </mxCell>
        <mxCell id="qFDh_s9qJEZ1eBO1WNiB-4" value="" style="group;rounded=1;" parent="1" vertex="1" connectable="0">
          <mxGeometry x="-635" y="-978" width="100" height="60" as="geometry" />
        </mxCell>
        <mxCell id="qFDh_s9qJEZ1eBO1WNiB-1" value="" style="strokeWidth=1;html=1;shape=mxgraph.flowchart.direct_data;whiteSpace=wrap;strokeColor=#666666;rounded=1;" parent="qFDh_s9qJEZ1eBO1WNiB-4" vertex="1">
          <mxGeometry width="100" height="60" as="geometry" />
        </mxCell>
        <mxCell id="9yMuYeVAX0W0EytgGPOR-2" value="LAZY LOAD QUERY FILE CONTENT" style="text;html=1;align=center;verticalAlign=middle;whiteSpace=wrap;rounded=1;" parent="qFDh_s9qJEZ1eBO1WNiB-4" vertex="1">
          <mxGeometry x="3" y="15" width="77.5" height="30" as="geometry" />
        </mxCell>
        <mxCell id="cFVYeV_1yY1gLTdhUka6-29" style="edgeStyle=orthogonalEdgeStyle;rounded=1;orthogonalLoop=1;jettySize=auto;html=1;strokeColor=#0e8088;align=center;verticalAlign=middle;fontFamily=Helvetica;fontSize=11;fontColor=default;labelBackgroundColor=default;endArrow=classic;flowAnimation=1;flowAnimationDuration=500;fillColor=#b0e3e6;entryX=0;entryY=0.5;entryDx=0;entryDy=0;" edge="1" parent="1" source="qFDh_s9qJEZ1eBO1WNiB-1" target="DN5n0ErYYURpiHTaHwvZ-20">
          <mxGeometry relative="1" as="geometry" />
        </mxCell>
        <mxCell id="cFVYeV_1yY1gLTdhUka6-30" style="edgeStyle=orthogonalEdgeStyle;rounded=1;orthogonalLoop=1;jettySize=auto;html=1;strokeColor=#0e8088;align=center;verticalAlign=middle;fontFamily=Helvetica;fontSize=11;fontColor=default;labelBackgroundColor=default;endArrow=classic;flowAnimation=1;flowAnimationDuration=500;fillColor=#b0e3e6;exitX=0.144;exitY=0.845;exitDx=0;exitDy=0;exitPerimeter=0;" edge="1" parent="1" source="DN5n0ErYYURpiHTaHwvZ-20">
          <mxGeometry relative="1" as="geometry">
            <mxPoint x="-448" y="-836" as="targetPoint" />
          </mxGeometry>
        </mxCell>
        <mxCell id="cFVYeV_1yY1gLTdhUka6-31" style="edgeStyle=orthogonalEdgeStyle;rounded=1;orthogonalLoop=1;jettySize=auto;html=1;exitX=0.474;exitY=-0.003;exitDx=0;exitDy=0;exitPerimeter=0;entryX=0.845;entryY=0.845;entryDx=0;entryDy=0;entryPerimeter=0;strokeColor=#0e8088;align=center;verticalAlign=middle;fontFamily=Helvetica;fontSize=11;fontColor=default;labelBackgroundColor=default;endArrow=classic;flowAnimation=1;flowAnimationDuration=500;fillColor=#b0e3e6;" edge="1" parent="1" target="DN5n0ErYYURpiHTaHwvZ-20">
          <mxGeometry relative="1" as="geometry">
            <mxPoint x="-370.5100000000002" y="-836.442" as="sourcePoint" />
          </mxGeometry>
        </mxCell>
        <mxCell id="cFVYeV_1yY1gLTdhUka6-38" style="edgeStyle=orthogonalEdgeStyle;rounded=1;orthogonalLoop=1;jettySize=auto;html=1;strokeColor=#0e8088;align=center;verticalAlign=middle;fontFamily=Helvetica;fontSize=11;fontColor=default;labelBackgroundColor=default;endArrow=classic;flowAnimation=1;flowAnimationDuration=500;fillColor=#b0e3e6;" edge="1" parent="1" source="cFVYeV_1yY1gLTdhUka6-32" target="cFVYeV_1yY1gLTdhUka6-39">
          <mxGeometry relative="1" as="geometry" />
        </mxCell>
        <mxCell id="cFVYeV_1yY1gLTdhUka6-32" value="ANNOTATE NODES" style="shape=process;whiteSpace=wrap;html=1;backgroundOutline=1;fillColor=#b0e3e6;strokeColor=#0e8088;rounded=1;" vertex="1" parent="1">
          <mxGeometry x="-313" y="-978" width="111" height="60" as="geometry" />
        </mxCell>
        <mxCell id="cFVYeV_1yY1gLTdhUka6-33" style="edgeStyle=orthogonalEdgeStyle;rounded=1;orthogonalLoop=1;jettySize=auto;html=1;strokeColor=#0e8088;align=center;verticalAlign=middle;fontFamily=Helvetica;fontSize=11;fontColor=default;labelBackgroundColor=default;endArrow=classic;flowAnimation=1;flowAnimationDuration=500;fillColor=#b0e3e6;" edge="1" parent="1" source="DN5n0ErYYURpiHTaHwvZ-20" target="cFVYeV_1yY1gLTdhUka6-32">
          <mxGeometry relative="1" as="geometry" />
        </mxCell>
        <mxCell id="cFVYeV_1yY1gLTdhUka6-40" style="edgeStyle=orthogonalEdgeStyle;rounded=1;orthogonalLoop=1;jettySize=auto;html=1;strokeColor=#0e8088;align=center;verticalAlign=middle;fontFamily=Helvetica;fontSize=11;fontColor=default;labelBackgroundColor=default;endArrow=classic;flowAnimation=1;flowAnimationDuration=500;fillColor=#b0e3e6;" edge="1" parent="1" source="cFVYeV_1yY1gLTdhUka6-39" target="cFVYeV_1yY1gLTdhUka6-61">
          <mxGeometry relative="1" as="geometry">
            <mxPoint x="-144.4761904761906" y="-846" as="targetPoint" />
          </mxGeometry>
        </mxCell>
        <mxCell id="cFVYeV_1yY1gLTdhUka6-42" style="edgeStyle=orthogonalEdgeStyle;rounded=1;orthogonalLoop=1;jettySize=auto;html=1;strokeColor=#0e8088;align=center;verticalAlign=middle;fontFamily=Helvetica;fontSize=11;fontColor=default;labelBackgroundColor=default;endArrow=classic;flowAnimation=1;flowAnimationDuration=500;fillColor=#b0e3e6;" edge="1" parent="1" source="cFVYeV_1yY1gLTdhUka6-39" target="cFVYeV_1yY1gLTdhUka6-48">
          <mxGeometry relative="1" as="geometry" />
        </mxCell>
        <mxCell id="cFVYeV_1yY1gLTdhUka6-59" style="edgeStyle=orthogonalEdgeStyle;rounded=1;orthogonalLoop=1;jettySize=auto;html=1;strokeColor=#0e8088;align=center;verticalAlign=middle;fontFamily=Helvetica;fontSize=11;fontColor=default;labelBackgroundColor=default;endArrow=classic;flowAnimation=1;flowAnimationDuration=500;fillColor=#b0e3e6;" edge="1" parent="1" source="cFVYeV_1yY1gLTdhUka6-39" target="cFVYeV_1yY1gLTdhUka6-60">
          <mxGeometry relative="1" as="geometry">
            <mxPoint x="-68.4761904761906" y="-846" as="targetPoint" />
          </mxGeometry>
        </mxCell>
        <mxCell id="cFVYeV_1yY1gLTdhUka6-39" value="PARALLEL WRITE OUTPUT" style="shape=process;whiteSpace=wrap;html=1;backgroundOutline=1;fillColor=#b0e3e6;strokeColor=#0e8088;rounded=1;" vertex="1" parent="1">
          <mxGeometry x="-162" y="-978" width="111" height="60" as="geometry" />
        </mxCell>
        <mxCell id="cFVYeV_1yY1gLTdhUka6-41" value="END" style="html=1;dashed=0;whiteSpace=wrap;shape=mxgraph.dfd.start;fillColor=#d5e8d4;strokeColor=#82b366;rounded=1;" vertex="1" parent="1">
          <mxGeometry x="72" y="-1116" width="80" height="30" as="geometry" />
        </mxCell>
        <mxCell id="cFVYeV_1yY1gLTdhUka6-44" value="&lt;span style=&quot;text-align: left;&quot;&gt;UCPLACE0020&lt;/span&gt;" style="shape=step;perimeter=stepPerimeter;whiteSpace=wrap;html=1;fixedSize=1;size=10;dashed=1;dashPattern=1 1;rounded=1;strokeColor=#6c8ebf;fillColor=#dae8fc;" vertex="1" parent="1">
          <mxGeometry x="-283.5" y="-918" width="110" height="20" as="geometry" />
        </mxCell>
        <mxCell id="cFVYeV_1yY1gLTdhUka6-49" style="edgeStyle=orthogonalEdgeStyle;rounded=1;orthogonalLoop=1;jettySize=auto;html=1;strokeColor=#0e8088;align=center;verticalAlign=middle;fontFamily=Helvetica;fontSize=11;fontColor=default;labelBackgroundColor=default;endArrow=classic;flowAnimation=1;flowAnimationDuration=500;fillColor=#b0e3e6;" edge="1" parent="1" source="cFVYeV_1yY1gLTdhUka6-48" target="cFVYeV_1yY1gLTdhUka6-41">
          <mxGeometry relative="1" as="geometry" />
        </mxCell>
        <mxCell id="cFVYeV_1yY1gLTdhUka6-48" value="EMIT FINISH SIGNAL" style="html=1;dashed=0;whiteSpace=wrap;strokeColor=#666666;rounded=1;" vertex="1" parent="1">
          <mxGeometry x="62" y="-973" width="100" height="50" as="geometry" />
        </mxCell>
        <mxCell id="cFVYeV_1yY1gLTdhUka6-45" value="&lt;span style=&quot;text-align: left;&quot;&gt;UCPLACE0002&lt;/span&gt;" style="shape=step;perimeter=stepPerimeter;whiteSpace=wrap;html=1;fixedSize=1;size=10;dashed=1;dashPattern=1 1;rounded=1;strokeColor=#6c8ebf;fillColor=#dae8fc;" vertex="1" parent="1">
          <mxGeometry x="40" y="-923" width="110" height="20" as="geometry" />
        </mxCell>
        <mxCell id="cFVYeV_1yY1gLTdhUka6-56" value="" style="edgeStyle=orthogonalEdgeStyle;rounded=1;orthogonalLoop=1;jettySize=auto;html=1;exitX=0.5;exitY=1;exitDx=0;exitDy=0;strokeColor=#0e8088;align=center;verticalAlign=middle;fontFamily=Helvetica;fontSize=11;fontColor=default;labelBackgroundColor=default;endArrow=classic;flowAnimation=1;flowAnimationDuration=500;fillColor=#b0e3e6;" edge="1" parent="1" source="6VBopC7Kgicb1M07M-dv-22" target="cFVYeV_1yY1gLTdhUka6-55">
          <mxGeometry relative="1" as="geometry">
            <mxPoint x="-755" y="-1032" as="sourcePoint" />
            <mxPoint x="-755" y="-837" as="targetPoint" />
          </mxGeometry>
        </mxCell>
        <mxCell id="cFVYeV_1yY1gLTdhUka6-55" value="EMIT INITIALIZATION SIGNAL" style="html=1;dashed=0;whiteSpace=wrap;strokeColor=#666666;rounded=1;" vertex="1" parent="1">
          <mxGeometry x="-805" y="-973" width="100" height="50" as="geometry" />
        </mxCell>
        <mxCell id="cFVYeV_1yY1gLTdhUka6-43" value="&lt;span style=&quot;text-align: left;&quot;&gt;UCPLACE0001&lt;/span&gt;" style="shape=step;perimeter=stepPerimeter;whiteSpace=wrap;html=1;fixedSize=1;size=10;dashed=1;dashPattern=1 1;rounded=1;strokeColor=#6c8ebf;fillColor=#dae8fc;" vertex="1" parent="1">
          <mxGeometry x="-789" y="-923" width="110" height="20" as="geometry" />
        </mxCell>
        <mxCell id="cFVYeV_1yY1gLTdhUka6-60" value="" style="aspect=fixed;pointerEvents=1;shadow=0;dashed=0;html=1;strokeColor=#ae4132;labelPosition=center;verticalLabelPosition=bottom;verticalAlign=top;align=center;fillColor=#fad9d5;shape=mxgraph.azure.file;rounded=1;" vertex="1" parent="1">
          <mxGeometry x="-93" y="-1111" width="47" height="50" as="geometry" />
        </mxCell>
        <mxCell id="cFVYeV_1yY1gLTdhUka6-61" value="" style="aspect=fixed;pointerEvents=1;shadow=0;dashed=0;html=1;strokeColor=#0e8088;labelPosition=center;verticalLabelPosition=bottom;verticalAlign=top;align=center;fillColor=#b0e3e6;shape=mxgraph.azure.file;rounded=1;" vertex="1" parent="1">
          <mxGeometry x="-167" y="-1111" width="47" height="50" as="geometry" />
        </mxCell>
        <mxCell id="cFVYeV_1yY1gLTdhUka6-63" value="SUCCESS&lt;div&gt;YAML&lt;/div&gt;" style="text;html=1;align=center;verticalAlign=middle;whiteSpace=wrap;rounded=1;" vertex="1" parent="1">
          <mxGeometry x="-173.5" y="-1151" width="60" height="30" as="geometry" />
        </mxCell>
        <mxCell id="cFVYeV_1yY1gLTdhUka6-64" value="ERROR&lt;div&gt;YAML&lt;/div&gt;" style="text;html=1;align=center;verticalAlign=middle;whiteSpace=wrap;rounded=1;" vertex="1" parent="1">
          <mxGeometry x="-102" y="-1151" width="60" height="30" as="geometry" />
        </mxCell>
        <mxCell id="cFVYeV_1yY1gLTdhUka6-71" value="" style="rounded=1;whiteSpace=wrap;html=1;strokeColor=#666666;arcSize=9;strokeWidth=0.5;fillColor=none;" vertex="1" parent="1">
          <mxGeometry x="-348" y="-707" width="498" height="196" as="geometry" />
        </mxCell>
        <mxCell id="cFVYeV_1yY1gLTdhUka6-100" style="edgeStyle=orthogonalEdgeStyle;rounded=1;orthogonalLoop=1;jettySize=auto;html=1;entryX=0;entryY=0.5;entryDx=0;entryDy=0;strokeColor=#0e8088;align=center;verticalAlign=middle;fontFamily=Helvetica;fontSize=11;fontColor=default;labelBackgroundColor=default;endArrow=classic;flowAnimation=1;fillColor=#b0e3e6;" edge="1" parent="1" source="cFVYeV_1yY1gLTdhUka6-65" target="cFVYeV_1yY1gLTdhUka6-93">
          <mxGeometry relative="1" as="geometry" />
        </mxCell>
        <mxCell id="cFVYeV_1yY1gLTdhUka6-65" value="0" style="rhombus;whiteSpace=wrap;html=1;fillColor=#ffe6cc;strokeColor=#d79b00;rounded=1;" vertex="1" parent="1">
          <mxGeometry x="-333.69" y="-638" width="57.38" height="51" as="geometry" />
        </mxCell>
        <mxCell id="cFVYeV_1yY1gLTdhUka6-81" style="edgeStyle=orthogonalEdgeStyle;rounded=1;orthogonalLoop=1;jettySize=auto;html=1;entryX=0.5;entryY=0;entryDx=0;entryDy=0;strokeColor=#0e8088;align=center;verticalAlign=middle;fontFamily=Helvetica;fontSize=11;fontColor=default;labelBackgroundColor=default;endArrow=classic;flowAnimation=1;fillColor=#b0e3e6;" edge="1" parent="1" source="npViB2GcufCHaodQWCgt-13" target="cFVYeV_1yY1gLTdhUka6-65">
          <mxGeometry relative="1" as="geometry">
            <mxPoint x="-204" y="-717" as="sourcePoint" />
          </mxGeometry>
        </mxCell>
        <mxCell id="cFVYeV_1yY1gLTdhUka6-93" value="1ST INTROSPECTION ITERACTION" style="rhombus;whiteSpace=wrap;html=1;fillColor=#eeeeee;strokeColor=#BABABA;rounded=1;" vertex="1" parent="1">
          <mxGeometry x="-231" y="-651" width="92" height="76" as="geometry" />
        </mxCell>
        <mxCell id="cFVYeV_1yY1gLTdhUka6-94" value="" style="group;rounded=1;" vertex="1" connectable="0" parent="1">
          <mxGeometry x="-117" y="-685.5" width="160" height="40" as="geometry" />
        </mxCell>
        <mxCell id="cFVYeV_1yY1gLTdhUka6-73" value="🔴 Unclassifiable" style="html=1;shadow=0;dashed=0;align=left;verticalAlign=middle;shape=mxgraph.arrows2.arrow;dy=0;dx=10;notch=0;fillColor=#d0cee2;strokeColor=#56517e;rounded=1;" vertex="1" parent="cFVYeV_1yY1gLTdhUka6-94">
          <mxGeometry width="139" height="23" as="geometry" />
        </mxCell>
        <mxCell id="cFVYeV_1yY1gLTdhUka6-95" value="" style="group;rounded=1;" vertex="1" connectable="0" parent="1">
          <mxGeometry x="-117" y="-564.5" width="163" height="40" as="geometry" />
        </mxCell>
        <mxCell id="cFVYeV_1yY1gLTdhUka6-96" value="✅ MaxResolutionReached" style="html=1;shadow=0;dashed=0;align=left;verticalAlign=middle;shape=mxgraph.arrows2.arrow;dy=0;dx=10;notch=0;fillColor=#d0cee2;strokeColor=#56517e;rounded=1;" vertex="1" parent="cFVYeV_1yY1gLTdhUka6-95">
          <mxGeometry width="163" height="23" as="geometry" />
        </mxCell>
        <mxCell id="cFVYeV_1yY1gLTdhUka6-98" style="edgeStyle=orthogonalEdgeStyle;rounded=1;orthogonalLoop=1;jettySize=auto;html=1;entryX=0;entryY=0.5;entryDx=0;entryDy=0;entryPerimeter=0;exitX=0.5;exitY=0;exitDx=0;exitDy=0;strokeColor=#0e8088;align=center;verticalAlign=middle;fontFamily=Helvetica;fontSize=11;fontColor=default;labelBackgroundColor=default;endArrow=classic;flowAnimation=1;fillColor=#b0e3e6;" edge="1" parent="1" source="cFVYeV_1yY1gLTdhUka6-93" target="cFVYeV_1yY1gLTdhUka6-73">
          <mxGeometry relative="1" as="geometry" />
        </mxCell>
        <mxCell id="cFVYeV_1yY1gLTdhUka6-112" value="YES" style="edgeLabel;html=1;align=center;verticalAlign=middle;resizable=0;points=[];rounded=1;" vertex="1" connectable="0" parent="cFVYeV_1yY1gLTdhUka6-98">
          <mxGeometry x="0.1606" relative="1" as="geometry">
            <mxPoint as="offset" />
          </mxGeometry>
        </mxCell>
        <mxCell id="cFVYeV_1yY1gLTdhUka6-99" style="edgeStyle=orthogonalEdgeStyle;rounded=1;orthogonalLoop=1;jettySize=auto;html=1;entryX=0;entryY=0.5;entryDx=0;entryDy=0;entryPerimeter=0;exitX=0.5;exitY=1;exitDx=0;exitDy=0;strokeColor=#0e8088;align=center;verticalAlign=middle;fontFamily=Helvetica;fontSize=11;fontColor=default;labelBackgroundColor=default;endArrow=classic;flowAnimation=1;fillColor=#b0e3e6;" edge="1" parent="1" source="cFVYeV_1yY1gLTdhUka6-93" target="cFVYeV_1yY1gLTdhUka6-96">
          <mxGeometry relative="1" as="geometry" />
        </mxCell>
        <mxCell id="cFVYeV_1yY1gLTdhUka6-113" value="NO" style="edgeLabel;html=1;align=center;verticalAlign=middle;resizable=0;points=[];rounded=1;" vertex="1" connectable="0" parent="cFVYeV_1yY1gLTdhUka6-99">
          <mxGeometry x="0.1619" y="1" relative="1" as="geometry">
            <mxPoint as="offset" />
          </mxGeometry>
        </mxCell>
        <mxCell id="cFVYeV_1yY1gLTdhUka6-101" value="" style="rounded=1;whiteSpace=wrap;html=1;strokeColor=#666666;arcSize=9;strokeWidth=0.5;fillColor=none;" vertex="1" parent="1">
          <mxGeometry x="-348" y="-501" width="498" height="196" as="geometry" />
        </mxCell>
        <mxCell id="cFVYeV_1yY1gLTdhUka6-102" style="edgeStyle=orthogonalEdgeStyle;rounded=1;orthogonalLoop=1;jettySize=auto;html=1;entryX=0;entryY=0.5;entryDx=0;entryDy=0;strokeColor=#0e8088;align=center;verticalAlign=middle;fontFamily=Helvetica;fontSize=11;fontColor=default;labelBackgroundColor=default;endArrow=classic;flowAnimation=1;fillColor=#b0e3e6;exitX=1;exitY=0.5;exitDx=0;exitDy=0;" edge="1" target="cFVYeV_1yY1gLTdhUka6-103" parent="1" source="cFVYeV_1yY1gLTdhUka6-67">
          <mxGeometry relative="1" as="geometry">
            <mxPoint x="-276" y="-406" as="sourcePoint" />
          </mxGeometry>
        </mxCell>
        <mxCell id="cFVYeV_1yY1gLTdhUka6-103" value="HAS CHILDREN&amp;nbsp;" style="rhombus;whiteSpace=wrap;html=1;fillColor=#eeeeee;strokeColor=#BABABA;rounded=1;" vertex="1" parent="1">
          <mxGeometry x="-231" y="-445" width="92" height="76" as="geometry" />
        </mxCell>
        <mxCell id="cFVYeV_1yY1gLTdhUka6-104" value="" style="group;rounded=1;" vertex="1" connectable="0" parent="1">
          <mxGeometry x="-117" y="-479.5" width="160" height="40" as="geometry" />
        </mxCell>
        <mxCell id="cFVYeV_1yY1gLTdhUka6-105" value="✅ IdentityFound" style="html=1;shadow=0;dashed=0;align=left;verticalAlign=middle;shape=mxgraph.arrows2.arrow;dy=0;dx=10;notch=0;fillColor=#d0cee2;strokeColor=#56517e;rounded=1;" vertex="1" parent="cFVYeV_1yY1gLTdhUka6-104">
          <mxGeometry width="137" height="23" as="geometry" />
        </mxCell>
        <mxCell id="cFVYeV_1yY1gLTdhUka6-106" value="&lt;span style=&quot;text-align: left;&quot;&gt;UCPLACE0016&lt;/span&gt;" style="shape=step;perimeter=stepPerimeter;whiteSpace=wrap;html=1;fixedSize=1;size=10;dashed=1;dashPattern=1 1;rounded=1;strokeColor=#6c8ebf;fillColor=#dae8fc;" vertex="1" parent="cFVYeV_1yY1gLTdhUka6-104">
          <mxGeometry x="13.5" y="23" width="110" height="20" as="geometry" />
        </mxCell>
        <mxCell id="cFVYeV_1yY1gLTdhUka6-107" value="" style="group;rounded=1;" vertex="1" connectable="0" parent="1">
          <mxGeometry x="-117" y="-358.5" width="159" height="40" as="geometry" />
        </mxCell>
        <mxCell id="cFVYeV_1yY1gLTdhUka6-108" value="🟢 IncreaseDepth" style="html=1;shadow=0;dashed=0;align=left;verticalAlign=middle;shape=mxgraph.arrows2.arrow;dy=0;dx=10;notch=0;fillColor=#d5e8d4;strokeColor=#82b366;rounded=1;" vertex="1" parent="cFVYeV_1yY1gLTdhUka6-107">
          <mxGeometry width="136" height="23" as="geometry" />
        </mxCell>
        <mxCell id="cFVYeV_1yY1gLTdhUka6-109" value="&lt;span style=&quot;text-align: left;&quot;&gt;UCPLACE0017&lt;/span&gt;" style="shape=step;perimeter=stepPerimeter;whiteSpace=wrap;html=1;fixedSize=1;size=10;dashed=1;dashPattern=1 1;rounded=1;strokeColor=#6c8ebf;fillColor=#dae8fc;" vertex="1" parent="cFVYeV_1yY1gLTdhUka6-107">
          <mxGeometry x="13" y="23" width="110" height="20" as="geometry" />
        </mxCell>
        <mxCell id="cFVYeV_1yY1gLTdhUka6-110" style="edgeStyle=orthogonalEdgeStyle;rounded=1;orthogonalLoop=1;jettySize=auto;html=1;entryX=0;entryY=0.5;entryDx=0;entryDy=0;entryPerimeter=0;exitX=0.5;exitY=0;exitDx=0;exitDy=0;strokeColor=#0e8088;align=center;verticalAlign=middle;fontFamily=Helvetica;fontSize=11;fontColor=default;labelBackgroundColor=default;endArrow=classic;flowAnimation=1;fillColor=#b0e3e6;" edge="1" source="cFVYeV_1yY1gLTdhUka6-103" target="cFVYeV_1yY1gLTdhUka6-105" parent="1">
          <mxGeometry relative="1" as="geometry" />
        </mxCell>
        <mxCell id="cFVYeV_1yY1gLTdhUka6-114" value="NO" style="edgeLabel;html=1;align=center;verticalAlign=middle;resizable=0;points=[];rounded=1;" vertex="1" connectable="0" parent="cFVYeV_1yY1gLTdhUka6-110">
          <mxGeometry x="0.1397" y="-1" relative="1" as="geometry">
            <mxPoint as="offset" />
          </mxGeometry>
        </mxCell>
        <mxCell id="cFVYeV_1yY1gLTdhUka6-111" style="edgeStyle=orthogonalEdgeStyle;rounded=1;orthogonalLoop=1;jettySize=auto;html=1;entryX=0;entryY=0.5;entryDx=0;entryDy=0;entryPerimeter=0;exitX=0.5;exitY=1;exitDx=0;exitDy=0;strokeColor=#0e8088;align=center;verticalAlign=middle;fontFamily=Helvetica;fontSize=11;fontColor=default;labelBackgroundColor=default;endArrow=classic;flowAnimation=1;fillColor=#b0e3e6;" edge="1" source="cFVYeV_1yY1gLTdhUka6-103" target="cFVYeV_1yY1gLTdhUka6-108" parent="1">
          <mxGeometry relative="1" as="geometry" />
        </mxCell>
        <mxCell id="cFVYeV_1yY1gLTdhUka6-115" value="YES" style="edgeLabel;html=1;align=center;verticalAlign=middle;resizable=0;points=[];rounded=1;" vertex="1" connectable="0" parent="cFVYeV_1yY1gLTdhUka6-111">
          <mxGeometry x="0.0984" relative="1" as="geometry">
            <mxPoint as="offset" />
          </mxGeometry>
        </mxCell>
        <mxCell id="cFVYeV_1yY1gLTdhUka6-68" value="" style="edgeStyle=orthogonalEdgeStyle;rounded=1;orthogonalLoop=1;jettySize=auto;html=1;flowAnimation=1;fillColor=#b0e3e6;strokeColor=#0e8088;" edge="1" parent="1" source="cFVYeV_1yY1gLTdhUka6-65" target="cFVYeV_1yY1gLTdhUka6-67">
          <mxGeometry relative="1" as="geometry">
            <mxPoint x="-304" y="-200" as="sourcePoint" />
            <mxPoint x="-304" y="-40" as="targetPoint" />
          </mxGeometry>
        </mxCell>
        <mxCell id="cFVYeV_1yY1gLTdhUka6-67" value="1" style="rhombus;whiteSpace=wrap;html=1;fillColor=#ffe6cc;strokeColor=#d79b00;rounded=1;" vertex="1" parent="1">
          <mxGeometry x="-332.69" y="-432.5" width="57.38" height="51" as="geometry" />
        </mxCell>
        <mxCell id="cFVYeV_1yY1gLTdhUka6-118" value="" style="rounded=1;whiteSpace=wrap;html=1;strokeColor=#666666;arcSize=9;strokeWidth=0.5;fillColor=none;" vertex="1" parent="1">
          <mxGeometry x="-348" y="-294" width="498" height="301" as="geometry" />
        </mxCell>
        <mxCell id="cFVYeV_1yY1gLTdhUka6-119" style="edgeStyle=orthogonalEdgeStyle;rounded=1;orthogonalLoop=1;jettySize=auto;html=1;strokeColor=#0e8088;align=center;verticalAlign=middle;fontFamily=Helvetica;fontSize=11;fontColor=default;labelBackgroundColor=default;endArrow=classic;flowAnimation=1;fillColor=#b0e3e6;exitX=1;exitY=0.5;exitDx=0;exitDy=0;" edge="1" target="cFVYeV_1yY1gLTdhUka6-135" parent="1" source="cFVYeV_1yY1gLTdhUka6-69">
          <mxGeometry relative="1" as="geometry">
            <mxPoint x="-275" y="-200" as="sourcePoint" />
            <mxPoint x="-231" y="-200" as="targetPoint" />
          </mxGeometry>
        </mxCell>
        <mxCell id="npViB2GcufCHaodQWCgt-23" value="END" style="html=1;dashed=0;whiteSpace=wrap;shape=mxgraph.dfd.start;fillColor=#d5e8d4;strokeColor=#82b366;rounded=1;" parent="1" vertex="1">
          <mxGeometry x="-344" y="23" width="80" height="30" as="geometry" />
        </mxCell>
        <mxCell id="cFVYeV_1yY1gLTdhUka6-69" value="&amp;gt;=2" style="rhombus;whiteSpace=wrap;html=1;fillColor=#ffe6cc;strokeColor=#d79b00;rounded=1;" vertex="1" parent="1">
          <mxGeometry x="-332.69" y="-225.5" width="57.38" height="51" as="geometry" />
        </mxCell>
        <mxCell id="npViB2GcufCHaodQWCgt-24" style="edgeStyle=orthogonalEdgeStyle;rounded=1;orthogonalLoop=1;jettySize=auto;html=1;flowAnimation=1;fillColor=#b0e3e6;strokeColor=#0e8088;" parent="1" source="cFVYeV_1yY1gLTdhUka6-69" target="npViB2GcufCHaodQWCgt-23" edge="1">
          <mxGeometry relative="1" as="geometry" />
        </mxCell>
        <mxCell id="cFVYeV_1yY1gLTdhUka6-70" value="" style="edgeStyle=orthogonalEdgeStyle;rounded=1;orthogonalLoop=1;jettySize=auto;html=1;flowAnimation=1;fillColor=#b0e3e6;strokeColor=#0e8088;" edge="1" parent="1" source="cFVYeV_1yY1gLTdhUka6-67" target="cFVYeV_1yY1gLTdhUka6-69">
          <mxGeometry relative="1" as="geometry">
            <mxPoint x="-304" y="-162" as="sourcePoint" />
            <mxPoint x="-304" y="-70" as="targetPoint" />
          </mxGeometry>
        </mxCell>
        <mxCell id="cFVYeV_1yY1gLTdhUka6-134" value="&lt;span style=&quot;text-align: left;&quot;&gt;UCPLACE0018&lt;/span&gt;" style="shape=step;perimeter=stepPerimeter;whiteSpace=wrap;html=1;fixedSize=1;size=10;dashed=1;dashPattern=1 1;rounded=1;strokeColor=#6c8ebf;fillColor=#dae8fc;" vertex="1" parent="1">
          <mxGeometry x="-292" y="-174" width="110" height="20" as="geometry" />
        </mxCell>
        <mxCell id="cFVYeV_1yY1gLTdhUka6-147" style="edgeStyle=orthogonalEdgeStyle;rounded=1;orthogonalLoop=1;jettySize=auto;html=1;strokeColor=#0e8088;align=center;verticalAlign=middle;fontFamily=Helvetica;fontSize=11;fontColor=default;labelBackgroundColor=default;endArrow=classic;flowAnimation=1;fillColor=#b0e3e6;" edge="1" parent="1" source="cFVYeV_1yY1gLTdhUka6-135" target="cFVYeV_1yY1gLTdhUka6-136">
          <mxGeometry relative="1" as="geometry" />
        </mxCell>
        <mxCell id="cFVYeV_1yY1gLTdhUka6-135" value="GET MAX DIFF" style="shape=process;whiteSpace=wrap;html=1;backgroundOutline=1;fillColor=#b0e3e6;strokeColor=#0e8088;rounded=1;" vertex="1" parent="1">
          <mxGeometry x="-243" y="-225.5" width="67" height="50" as="geometry" />
        </mxCell>
        <mxCell id="cFVYeV_1yY1gLTdhUka6-136" value="SINGLE PROPOSAL" style="rhombus;whiteSpace=wrap;html=1;fillColor=#eeeeee;strokeColor=#BABABA;rounded=1;" vertex="1" parent="1">
          <mxGeometry x="-149" y="-238.5" width="92" height="76" as="geometry" />
        </mxCell>
        <mxCell id="cFVYeV_1yY1gLTdhUka6-137" value="" style="group;rounded=1;" vertex="1" connectable="0" parent="1">
          <mxGeometry x="-35" y="-273" width="160" height="40" as="geometry" />
        </mxCell>
        <mxCell id="cFVYeV_1yY1gLTdhUka6-138" value="🔴 Inconclusive" style="html=1;shadow=0;dashed=0;align=left;verticalAlign=middle;shape=mxgraph.arrows2.arrow;dy=0;dx=10;notch=0;fillColor=#d0cee2;strokeColor=#56517e;rounded=1;" vertex="1" parent="cFVYeV_1yY1gLTdhUka6-137">
          <mxGeometry width="137" height="23" as="geometry" />
        </mxCell>
        <mxCell id="cFVYeV_1yY1gLTdhUka6-143" style="edgeStyle=orthogonalEdgeStyle;rounded=1;orthogonalLoop=1;jettySize=auto;html=1;entryX=0;entryY=0.5;entryDx=0;entryDy=0;entryPerimeter=0;exitX=0.5;exitY=0;exitDx=0;exitDy=0;strokeColor=#0e8088;align=center;verticalAlign=middle;fontFamily=Helvetica;fontSize=11;fontColor=default;labelBackgroundColor=default;endArrow=classic;flowAnimation=1;fillColor=#b0e3e6;" edge="1" source="cFVYeV_1yY1gLTdhUka6-136" target="cFVYeV_1yY1gLTdhUka6-138" parent="1">
          <mxGeometry relative="1" as="geometry" />
        </mxCell>
        <mxCell id="cFVYeV_1yY1gLTdhUka6-144" value="NO" style="edgeLabel;html=1;align=center;verticalAlign=middle;resizable=0;points=[];rounded=1;" vertex="1" connectable="0" parent="cFVYeV_1yY1gLTdhUka6-143">
          <mxGeometry x="0.1397" y="-1" relative="1" as="geometry">
            <mxPoint as="offset" />
          </mxGeometry>
        </mxCell>
        <mxCell id="cFVYeV_1yY1gLTdhUka6-149" style="edgeStyle=orthogonalEdgeStyle;rounded=1;orthogonalLoop=1;jettySize=auto;html=1;strokeColor=#0e8088;align=center;verticalAlign=middle;fontFamily=Helvetica;fontSize=11;fontColor=default;labelBackgroundColor=default;endArrow=classic;flowAnimation=1;fillColor=#b0e3e6;exitX=0.5;exitY=1;exitDx=0;exitDy=0;" edge="1" target="cFVYeV_1yY1gLTdhUka6-150" parent="1" source="cFVYeV_1yY1gLTdhUka6-136">
          <mxGeometry relative="1" as="geometry">
            <mxPoint x="-80" y="-200.5" as="sourcePoint" />
          </mxGeometry>
        </mxCell>
        <mxCell id="cFVYeV_1yY1gLTdhUka6-150" value="HAS CHILDREN&amp;nbsp;" style="rhombus;whiteSpace=wrap;html=1;fillColor=#eeeeee;strokeColor=#BABABA;rounded=1;" vertex="1" parent="1">
          <mxGeometry x="-149" y="-135.5" width="92" height="76" as="geometry" />
        </mxCell>
        <mxCell id="cFVYeV_1yY1gLTdhUka6-151" value="" style="group;rounded=1;" vertex="1" connectable="0" parent="1">
          <mxGeometry x="-7" y="-110" width="160" height="40" as="geometry" />
        </mxCell>
        <mxCell id="cFVYeV_1yY1gLTdhUka6-152" value="✅ IdentityFound" style="html=1;shadow=0;dashed=0;align=left;verticalAlign=middle;shape=mxgraph.arrows2.arrow;dy=0;dx=10;notch=0;fillColor=#d0cee2;strokeColor=#56517e;rounded=1;" vertex="1" parent="cFVYeV_1yY1gLTdhUka6-151">
          <mxGeometry width="138" height="23" as="geometry" />
        </mxCell>
        <mxCell id="cFVYeV_1yY1gLTdhUka6-153" value="&lt;span style=&quot;text-align: left;&quot;&gt;UCPLACE0016&lt;/span&gt;" style="shape=step;perimeter=stepPerimeter;whiteSpace=wrap;html=1;fixedSize=1;size=10;dashed=1;dashPattern=1 1;rounded=1;strokeColor=#6c8ebf;fillColor=#dae8fc;" vertex="1" parent="cFVYeV_1yY1gLTdhUka6-151">
          <mxGeometry x="14" y="23" width="110" height="20" as="geometry" />
        </mxCell>
        <mxCell id="cFVYeV_1yY1gLTdhUka6-154" value="" style="group;rounded=1;" vertex="1" connectable="0" parent="1">
          <mxGeometry x="-35" y="-50" width="159" height="40" as="geometry" />
        </mxCell>
        <mxCell id="cFVYeV_1yY1gLTdhUka6-155" value="🟢 IncreaseDepth" style="html=1;shadow=0;dashed=0;align=left;verticalAlign=middle;shape=mxgraph.arrows2.arrow;dy=0;dx=10;notch=0;fillColor=#d5e8d4;strokeColor=#82b366;rounded=1;" vertex="1" parent="cFVYeV_1yY1gLTdhUka6-154">
          <mxGeometry width="142" height="23" as="geometry" />
        </mxCell>
        <mxCell id="cFVYeV_1yY1gLTdhUka6-156" value="&lt;span style=&quot;text-align: left;&quot;&gt;UCPLACE0017&lt;/span&gt;" style="shape=step;perimeter=stepPerimeter;whiteSpace=wrap;html=1;fixedSize=1;size=10;dashed=1;dashPattern=1 1;rounded=1;strokeColor=#6c8ebf;fillColor=#dae8fc;" vertex="1" parent="cFVYeV_1yY1gLTdhUka6-154">
          <mxGeometry x="16" y="23" width="110" height="20" as="geometry" />
        </mxCell>
        <mxCell id="cFVYeV_1yY1gLTdhUka6-157" style="edgeStyle=orthogonalEdgeStyle;rounded=1;orthogonalLoop=1;jettySize=auto;html=1;entryX=0;entryY=0.5;entryDx=0;entryDy=0;entryPerimeter=0;exitX=1;exitY=0.5;exitDx=0;exitDy=0;strokeColor=#0e8088;align=center;verticalAlign=middle;fontFamily=Helvetica;fontSize=11;fontColor=default;labelBackgroundColor=default;endArrow=classic;flowAnimation=1;fillColor=#b0e3e6;" edge="1" source="cFVYeV_1yY1gLTdhUka6-150" target="cFVYeV_1yY1gLTdhUka6-152" parent="1">
          <mxGeometry relative="1" as="geometry" />
        </mxCell>
        <mxCell id="cFVYeV_1yY1gLTdhUka6-158" value="NO" style="edgeLabel;html=1;align=center;verticalAlign=middle;resizable=0;points=[];rounded=1;" vertex="1" connectable="0" parent="cFVYeV_1yY1gLTdhUka6-157">
          <mxGeometry x="0.1397" y="-1" relative="1" as="geometry">
            <mxPoint x="-8" y="-1" as="offset" />
          </mxGeometry>
        </mxCell>
        <mxCell id="cFVYeV_1yY1gLTdhUka6-159" style="edgeStyle=orthogonalEdgeStyle;rounded=1;orthogonalLoop=1;jettySize=auto;html=1;entryX=0;entryY=0.5;entryDx=0;entryDy=0;entryPerimeter=0;exitX=0.5;exitY=1;exitDx=0;exitDy=0;strokeColor=#0e8088;align=center;verticalAlign=middle;fontFamily=Helvetica;fontSize=11;fontColor=default;labelBackgroundColor=default;endArrow=classic;flowAnimation=1;fillColor=#b0e3e6;" edge="1" source="cFVYeV_1yY1gLTdhUka6-150" target="cFVYeV_1yY1gLTdhUka6-155" parent="1">
          <mxGeometry relative="1" as="geometry" />
        </mxCell>
        <mxCell id="cFVYeV_1yY1gLTdhUka6-160" value="YES" style="edgeLabel;html=1;align=center;verticalAlign=middle;resizable=0;points=[];rounded=1;" vertex="1" connectable="0" parent="cFVYeV_1yY1gLTdhUka6-159">
          <mxGeometry x="0.0984" relative="1" as="geometry">
            <mxPoint as="offset" />
          </mxGeometry>
        </mxCell>
        <mxCell id="cFVYeV_1yY1gLTdhUka6-171" style="edgeStyle=orthogonalEdgeStyle;rounded=1;orthogonalLoop=1;jettySize=auto;html=1;entryX=0.138;entryY=0.538;entryDx=0;entryDy=0;entryPerimeter=0;strokeColor=#0e8088;align=center;verticalAlign=middle;fontFamily=Helvetica;fontSize=11;fontColor=default;labelBackgroundColor=default;endArrow=none;flowAnimation=1;flowAnimationDuration=500;fillColor=#b0e3e6;endFill=0;" edge="1" parent="1" source="DN5n0ErYYURpiHTaHwvZ-32" target="6VBopC7Kgicb1M07M-dv-22">
          <mxGeometry relative="1" as="geometry" />
        </mxCell>
        <mxCell id="cFVYeV_1yY1gLTdhUka6-139" value="&lt;span style=&quot;text-align: left;&quot;&gt;UCPLACE0019&lt;/span&gt;" style="shape=step;perimeter=stepPerimeter;whiteSpace=wrap;html=1;fixedSize=1;size=10;dashed=1;dashPattern=1 1;rounded=1;strokeColor=#6c8ebf;fillColor=#dae8fc;" vertex="1" parent="1">
          <mxGeometry x="-21.5" y="-250" width="110" height="20" as="geometry" />
        </mxCell>
        <mxCell id="cFVYeV_1yY1gLTdhUka6-97" value="&lt;span style=&quot;text-align: left;&quot;&gt;UCPLACE0015&lt;/span&gt;" style="shape=step;perimeter=stepPerimeter;whiteSpace=wrap;html=1;fixedSize=1;size=10;dashed=1;dashPattern=1 1;rounded=1;strokeColor=#6c8ebf;fillColor=#dae8fc;" vertex="1" parent="1">
          <mxGeometry x="-103" y="-541.5" width="110" height="20" as="geometry" />
        </mxCell>
        <mxCell id="cFVYeV_1yY1gLTdhUka6-77" value="&lt;span style=&quot;text-align: left;&quot;&gt;UCPLACE0011&lt;/span&gt;" style="shape=step;perimeter=stepPerimeter;whiteSpace=wrap;html=1;fixedSize=1;size=10;dashed=1;dashPattern=1 1;rounded=1;strokeColor=#6c8ebf;fillColor=#dae8fc;" vertex="1" parent="1">
          <mxGeometry x="-103" y="-662.5" width="110" height="20" as="geometry" />
        </mxCell>
        <mxCell id="cFVYeV_1yY1gLTdhUka6-174" value="" style="rhombus;whiteSpace=wrap;html=1;fillColor=#ffe6cc;strokeColor=#d79b00;rounded=1;" vertex="1" parent="1">
          <mxGeometry x="13.189999999999998" y="100" width="46" height="40" as="geometry" />
        </mxCell>
        <mxCell id="cFVYeV_1yY1gLTdhUka6-175" value="NUMBER OF PROPOSALS" style="text;html=1;align=left;verticalAlign=middle;whiteSpace=wrap;rounded=1;fontFamily=Architects Daughter;fontSource=https%3A%2F%2Ffonts.googleapis.com%2Fcss%3Ffamily%3DArchitects%2BDaughter;" vertex="1" parent="1">
          <mxGeometry x="65.5" y="105" width="81.5" height="30" as="geometry" />
        </mxCell>
        <mxCell id="cFVYeV_1yY1gLTdhUka6-176" value="" style="shape=step;perimeter=stepPerimeter;whiteSpace=wrap;html=1;fixedSize=1;size=10;dashed=1;dashPattern=1 1;rounded=1;strokeColor=#6c8ebf;fillColor=#dae8fc;" vertex="1" parent="1">
          <mxGeometry x="-879.81" y="110" width="110" height="20" as="geometry" />
        </mxCell>
        <mxCell id="cFVYeV_1yY1gLTdhUka6-177" value="" style="html=1;shadow=0;dashed=0;align=left;verticalAlign=middle;shape=mxgraph.arrows2.arrow;dy=0;dx=10;notch=0;fillColor=#d0cee2;strokeColor=#56517e;rounded=1;" vertex="1" parent="1">
          <mxGeometry x="-427" y="92.75" width="105" height="23" as="geometry" />
        </mxCell>
        <mxCell id="cFVYeV_1yY1gLTdhUka6-178" value="TRACING&lt;div&gt;&lt;span style=&quot;background-color: initial;&quot;&gt;TAG&lt;/span&gt;&lt;/div&gt;" style="text;html=1;align=left;verticalAlign=middle;whiteSpace=wrap;rounded=1;fontFamily=Architects Daughter;fontSource=https%3A%2F%2Ffonts.googleapis.com%2Fcss%3Ffamily%3DArchitects%2BDaughter;" vertex="1" parent="1">
          <mxGeometry x="-758.81" y="105" width="64" height="30" as="geometry" />
        </mxCell>
        <mxCell id="cFVYeV_1yY1gLTdhUka6-179" value="PLACEMENT STATUS" style="text;html=1;align=left;verticalAlign=middle;whiteSpace=wrap;rounded=1;fontFamily=Architects Daughter;fontSource=https%3A%2F%2Ffonts.googleapis.com%2Fcss%3Ffamily%3DArchitects%2BDaughter;" vertex="1" parent="1">
          <mxGeometry x="-309.80999999999995" y="105" width="85" height="30" as="geometry" />
        </mxCell>
        <mxCell id="cFVYeV_1yY1gLTdhUka6-181" value="" style="html=1;shadow=0;dashed=0;align=left;verticalAlign=middle;shape=mxgraph.arrows2.arrow;dy=0;dx=10;notch=0;fillColor=#d5e8d4;strokeColor=#82b366;rounded=1;" vertex="1" parent="1">
          <mxGeometry x="-427" y="124.25" width="104.81" height="23" as="geometry" />
        </mxCell>
      </root>
    </mxGraphModel>
  </diagram>
</mxfile>
